<?xml version="1.0" encoding="UTF-8"?>
<svg version="1.1" viewBox="0 0 550 700" xmlns="http://www.w3.org/2000/svg">
  <path fill="#00BAFF" d=" M28.167587,354.868042   C35.868050,322.277985 49.972065,292.650879 69.805077,265.758789   C82.927628,247.965607 98.131035,232.223145 115.652962,218.562561   C131.263702,206.392014 147.873367,196.072845 165.742294,187.717606   C184.432465,178.978363 203.937958,172.768509 224.240341,168.938583   C238.493698,166.249786 252.793274,164.587326 267.710114,165.536499   C268.075043,170.383698 267.933899,174.714981 268.019684,179.041748   C268.273804,191.860657 264.453552,203.602448 258.894226,214.946747   C258.135773,216.494446 257.880524,218.428650 257.876312,220.185059   C257.814423,246.004288 257.708099,271.824829 257.933441,297.642242   C257.983398,303.366547 258.859131,309.169708 260.074432,314.780670   C263.005707,328.314270 269.041656,341.032593 270.181396,355.093872   C270.986725,365.029114 271.886536,374.602692 268.133484,384.404755   C266.274048,389.261200 263.411102,393.162720 261.031525,397.524963   C255.011490,408.560883 248.986923,419.616943 243.628555,430.978302   C241.860840,434.726440 240.883194,439.684753 241.686218,443.656708   C244.532364,457.734375 253.752426,466.738342 266.264832,473.438049   C276.949280,479.158997 288.487488,482.043427 299.989655,483.639587   C315.513580,485.793793 331.379211,485.832886 347.107422,486.024170   C355.194855,486.122559 363.261627,483.611389 368.446320,477.006653   C374.744568,468.983368 380.284119,460.313202 385.602966,451.588226   C390.050781,444.292114 395.935120,438.959991 404.177917,437.266785   C418.220306,434.382324 432.219757,435.305145 445.727051,440.356445   C455.229767,443.910187 464.810333,446.572266 475.095184,446.076324   C476.955322,445.986633 478.855133,446.934631 480.751221,447.334534   C486.628845,448.574188 492.485016,450.578461 498.402924,450.789642   C505.184998,451.031708 512.024231,449.671265 518.838684,449.006989   C517.117126,458.574463 515.878845,468.260193 513.572021,477.684418   C508.978210,496.452148 502.054230,514.397644 493.125244,531.572571   C484.997528,547.206177 475.573669,561.965027 464.101807,575.349854   C458.206146,582.228638 452.374390,589.230713 445.861664,595.499573   C423.955292,616.585693 399.124878,633.301758 371.161560,645.537109   C352.944733,653.507935 334.078583,659.057739 314.699463,662.859497   C297.475037,666.238586 279.938934,666.220947 262.419495,666.052856   C241.028198,665.847534 220.311996,661.983154 199.817825,656.092712   C172.245255,648.167725 146.857834,635.667358 123.902580,618.753784   C110.840797,609.129700 99.328812,597.402283 87.155746,585.961548   C88.847534,579.962341 90.492218,574.620483 92.163025,569.286804   C92.740837,567.442200 93.498398,565.647400 93.977486,563.779480   C96.512589,553.895264 98.231499,543.721008 101.700089,534.180542   C104.903587,525.369263 101.033112,513.152283 92.990562,507.287781   C87.158600,503.035187 79.954857,497.365906 82.046188,487.770020   C82.629921,485.091614 83.486923,482.393433 84.713257,479.952881   C86.567871,476.262024 89.483871,473.011475 90.840782,469.181274   C94.678528,458.348389 97.319405,447.062317 101.582314,436.415405   C110.231949,414.812439 96.112907,391.530853 81.856262,383.153473   C64.435081,372.916565 46.104771,364.226807 28.167587,354.868042  M231.298508,607.789551   C227.994736,610.190979 224.690979,612.592407 220.566452,615.590393   C221.354904,617.586487 222.064163,620.289795 223.432648,622.603088   C224.940567,625.152100 227.074356,627.327148 228.897736,629.694214   C230.708786,632.045227 232.617111,633.427368 235.891266,634.295715   C242.986343,636.177612 250.636139,637.540588 255.544830,644.366455   C257.080688,646.502197 260.127258,648.607910 262.636200,648.809265   C275.064758,649.806519 287.159760,647.564087 298.989716,643.728210   C305.123199,641.739380 311.248779,638.660461 317.493896,638.341003   C326.039612,637.903870 334.111908,636.031921 341.613861,632.671326   C346.017456,630.698730 351.531525,626.555725 352.475586,622.452515   C354.609894,613.176086 353.081573,603.602905 345.831482,596.129883   C341.771301,591.944702 337.747742,587.698669 333.385284,583.844910   C331.718292,582.372314 328.811249,580.707092 327.052490,581.202087   C317.881042,583.783142 308.378662,586.011597 299.970886,590.288330   C287.605438,596.578064 276.073639,600.619629 262.413971,593.629211   C254.923157,589.795898 247.061752,590.930542 241.235306,598.688599   C238.724380,602.032043 235.023148,604.481445 231.298508,607.789551 z" />
  <path fill="#00B501" d=" M231.580597,607.563232   C235.023148,604.481445 238.724380,602.032043 241.235306,598.688599   C247.061752,590.930542 254.923157,589.795898 262.413971,593.629211   C276.073639,600.619629 287.605438,596.578064 299.970886,590.288330   C308.378662,586.011597 317.881042,583.783142 327.052490,581.202087   C328.811249,580.707092 331.718292,582.372314 333.385284,583.844910   C337.747742,587.698669 341.771301,591.944702 345.831482,596.129883   C353.081573,603.602905 354.609894,613.176086 352.475586,622.452515   C351.531525,626.555725 346.017456,630.698730 341.613861,632.671326   C334.111908,636.031921 326.039612,637.903870 317.493896,638.341003   C311.248779,638.660461 305.123199,641.739380 298.989716,643.728210   C287.159760,647.564087 275.064758,649.806519 262.636200,648.809265   C260.127258,648.607910 257.080688,646.502197 255.544830,644.366455   C250.636139,637.540588 242.986343,636.177612 235.891266,634.295715   C232.617111,633.427368 230.708786,632.045227 228.897736,629.694214   C227.074356,627.327148 224.940567,625.152100 223.432648,622.603088   C222.064163,620.289795 221.354904,617.586487 220.566452,615.590393   C224.690979,612.592407 227.994736,610.190979 231.580597,607.563232  z" />
  <path fill="#00BAFB" d=" M519.370117,446.942352   C518.667053,446.479004 518.004944,445.764435 518.050110,445.097687   C518.615417,436.739807 519.285889,428.389099 519.921814,420.035980   C520.035339,418.545013 520.114868,417.051453 520.525513,415.319275   C520.473877,425.624054 520.106873,436.168701 519.370117,446.942352  z" />
  <path fill="#666666" d=" M265.009949,128.533661   C263.641663,133.968658 259.973389,131.882767 256.944641,131.403793   C252.602493,130.717087 248.323746,129.553268 243.965057,129.063889   C236.171356,128.188858 228.920319,126.208847 224.187042,119.453926   C222.951370,117.690460 222.927948,114.971542 222.672226,112.655617   C222.385757,110.061180 222.758636,107.376442 222.322601,104.820038   C221.630081,100.759674 220.155182,98.134880 214.961990,100.335991   C210.931198,102.044434 205.621414,98.917557 203.173035,94.262817   C200.985229,90.103500 201.370758,86.327354 205.277313,83.197380   C210.683334,78.866005 216.012924,74.439224 221.725922,70.021103   C232.301041,76.411461 240.159500,85.230125 247.311707,94.789009   C254.948608,104.995659 260.890991,116.084435 265.009949,128.533661  z" />
  <path fill="#00B500" d=" M518.900635,448.705261   C512.024231,449.671265 505.184998,451.031708 498.402924,450.789642   C492.485016,450.578461 486.628845,448.574188 480.751221,447.334534   C478.855133,446.934631 476.955322,445.986633 475.095184,446.076324   C464.810333,446.572266 455.229767,443.910187 445.727051,440.356445   C432.219757,435.305145 418.220306,434.382324 404.177917,437.266785   C395.935120,438.959991 390.050781,444.292114 385.602966,451.588226   C380.284119,460.313202 374.744568,468.983368 368.446320,477.006653   C363.261627,483.611389 355.194855,486.122559 347.107422,486.024170   C331.379211,485.832886 315.513580,485.793793 299.989655,483.639587   C288.487488,482.043427 276.949280,479.158997 266.264832,473.438049   C253.752426,466.738342 244.532364,457.734375 241.686218,443.656708   C240.883194,439.684753 241.860840,434.726440 243.628555,430.978302   C248.986923,419.616943 255.011490,408.560883 261.031525,397.524963   C263.411102,393.162720 266.274048,389.261200 268.133484,384.404755   C271.886536,374.602692 270.986725,365.029114 270.181396,355.093872   C269.041656,341.032593 263.005707,328.314270 260.074432,314.780670   C258.859131,309.169708 257.983398,303.366547 257.933441,297.642242   C257.708099,271.824829 257.814423,246.004288 257.876312,220.185059   C257.880524,218.428650 258.135773,216.494446 258.894226,214.946747   C264.453552,203.602448 268.273804,191.860657 268.019684,179.041748   C267.933899,174.714981 268.075043,170.383698 268.191406,165.603180   C293.549225,163.907318 318.108063,167.841995 342.325745,174.915939   C371.543732,183.450500 398.177368,197.115952 422.409607,215.296295   C439.351318,228.006866 454.432098,242.741333 467.451202,259.639740   C479.057983,274.704895 489.272064,290.538666 497.279541,307.743835   C507.291199,329.255249 514.930969,351.598694 517.908325,375.224213   C519.533386,388.119415 519.982788,401.162750 520.586182,414.849182   C520.114868,417.051453 520.035339,418.545013 519.921814,420.035980   C519.285889,428.389099 518.615417,436.739807 518.050110,445.097687   C518.004944,445.764435 518.667053,446.479004 519.000427,447.171356   C518.987793,447.582062 518.975159,447.992798 518.900635,448.705261  z" />
  <path fill="#00B500" d=" M28.086550,355.266937   C46.104771,364.226807 64.435081,372.916565 81.856262,383.153473   C96.112907,391.530853 110.231949,414.812439 101.582314,436.415405   C97.319405,447.062317 94.678528,458.348389 90.840782,469.181274   C89.483871,473.011475 86.567871,476.262024 84.713257,479.952881   C83.486923,482.393433 82.629921,485.091614 82.046188,487.770020   C79.954857,497.365906 87.158600,503.035187 92.990562,507.287781   C101.033112,513.152283 104.903587,525.369263 101.700089,534.180542   C98.231499,543.721008 96.512589,553.895264 93.977486,563.779480   C93.498398,565.647400 92.740837,567.442200 92.163025,569.286804   C90.492218,574.620483 88.847534,579.962341 87.013214,585.651123   C77.587128,573.867859 67.571922,562.236206 59.256271,549.495239   C42.765011,524.227905 32.403427,496.351013 25.836536,466.868835   C20.668997,443.669098 20.105732,420.240967 21.298513,396.829681   C22.001575,383.030304 25.670464,369.382080 28.086550,355.266937  z" />
  <path fill="#7E7E7E" d=" M141.069504,45.157181   C170.998398,43.143059 197.655746,52.043030 221.583542,69.703674   C216.012924,74.439224 210.683334,78.866005 205.277313,83.197380   C201.370758,86.327354 200.985229,90.103500 203.173035,94.262817   C205.621414,98.917557 210.931198,102.044434 214.961990,100.335991   C220.155182,98.134880 221.630081,100.759674 222.322601,104.820038   C222.758636,107.376442 222.385757,110.061180 222.672226,112.655617   C222.927948,114.971542 222.951370,117.690460 224.187042,119.453926   C228.920319,126.208847 236.171356,128.188858 243.965057,129.063889   C248.323746,129.553268 252.602493,130.717087 256.944641,131.403793   C259.973389,131.882767 263.641663,133.968658 265.020172,128.913849   C269.571960,138.627701 270.715302,149.070221 272.108276,159.857117   C230.363998,158.656036 191.489380,168.150406 154.878464,186.681641   C117.979553,205.358643 87.864510,232.118225 63.655178,265.882141   C48.646038,252.609314 37.576401,236.751312 29.994730,218.412704   C24.765434,205.764023 21.450434,192.673157 21.561848,178.473450   C28.906944,178.014832 35.730309,178.000168 42.553642,178.008820   C49.421242,178.017532 54.591679,175.338821 58.042816,169.137390   C60.536346,164.656723 63.285271,160.224899 66.536179,156.278671   C73.032448,148.392944 81.726234,144.451630 91.801537,142.893692   C96.917999,142.102524 101.946121,140.391693 106.837921,138.612122   C110.403694,137.314957 113.529907,134.774292 117.114983,133.571854   C128.815033,129.647644 138.108780,123.314041 144.755234,112.350838   C148.581451,106.039536 149.427597,103.695267 142.236649,97.576584   C139.087112,94.896683 135.803009,92.375427 132.597900,89.760208   C128.325790,86.274353 124.613472,75.030449 127.260376,71.859322   C130.071991,68.490868 133.400223,65.141113 137.208694,63.100632   C145.905457,58.441132 147.396515,52.827572 141.069504,45.157181  z" />
  <path fill="#666666" d=" M140.610550,45.097717   C147.396515,52.827572 145.905457,58.441132 137.208694,63.100632   C133.400223,65.141113 130.071991,68.490868 127.260376,71.859322   C124.613472,75.030449 128.325790,86.274353 132.597900,89.760208   C135.803009,92.375427 139.087112,94.896683 142.236649,97.576584   C149.427597,103.695267 148.581451,106.039536 144.755234,112.350838   C138.108780,123.314041 128.815033,129.647644 117.114983,133.571854   C113.529907,134.774292 110.403694,137.314957 106.837921,138.612122   C101.946121,140.391693 96.917999,142.102524 91.801537,142.893692   C81.726234,144.451630 73.032448,148.392944 66.536179,156.278671   C63.285271,160.224899 60.536346,164.656723 58.042816,169.137390   C54.591679,175.338821 49.421242,178.017532 42.553642,178.008820   C35.730309,178.000168 28.906944,178.014832 21.627445,178.031250   C18.908125,144.707748 28.793966,115.329132 49.903500,89.573189   C69.579376,65.566467 95.351990,52.118404 125.354950,46.151134   C130.170456,45.193378 135.213654,45.380424 140.610550,45.097717  z" />
</svg>
