<?xml version="1.0" standalone="no"?>
<!DOCTYPE svg PUBLIC "-//W3C//DTD SVG 20010904//EN"
 "http://www.w3.org/TR/2001/REC-SVG-20010904/DTD/svg10.dtd">
<svg version="1.0" xmlns="http://www.w3.org/2000/svg"
 width="700.000000pt" height="700.000000pt" viewBox="0 0 700.000000 700.000000"
 preserveAspectRatio="xMidYMid meet">
<metadata>
Created by potrace 1.14, written by Peter Selinger 2001-2017
</metadata>
<g transform="translate(0.000000,700.000000) scale(0.100000,-0.100000)"
fill="#000000" stroke="none">
<path d="M1970 6530 c-112 -23 -198 -52 -320 -108 -42 -19 -160 -91 -178 -109
-7 -7 -17 -13 -21 -13 -12 0 -175 -161 -217 -215 -85 -106 -152 -225 -199
-349 -22 -58 -31 -92 -51 -181 -20 -92 -27 -306 -11 -332 5 -7 4 -13 -1 -13
-9 0 -9 -12 2 -110 8 -73 16 -110 48 -204 58 -177 157 -341 287 -478 l77 -82
32 46 c18 26 38 52 45 60 6 7 35 41 62 75 52 66 241 255 310 310 234 190 477
330 740 426 94 34 221 73 270 82 22 5 45 9 50 11 11 3 46 11 85 19 14 3 45 7
69 10 23 3 56 7 71 10 15 3 65 7 110 10 46 3 85 7 88 9 2 3 15 1 28 -4 13 -5
24 -6 24 -2 0 4 23 7 51 6 l51 -3 -6 37 c-3 20 -8 55 -11 77 -4 22 -13 65 -21
95 -9 30 -18 65 -21 78 -3 12 -9 22 -14 22 -5 0 -9 11 -9 24 0 34 -84 199
-148 291 -31 44 -88 112 -127 151 -70 71 -175 154 -195 154 -5 0 -10 4 -10 8
0 14 -180 109 -268 141 -84 31 -117 41 -162 46 -14 2 -25 4 -25 5 0 8 -68 13
-220 15 -143 3 -197 0 -265 -15z"/>
<path d="M3207 5344 c-1 -1 -24 -5 -52 -8 -65 -8 -278 -47 -286 -51 -3 -2 -16
-6 -30 -8 -169 -32 -585 -213 -714 -312 -10 -8 -24 -15 -30 -15 -5 0 -22 -10
-36 -22 -14 -13 -32 -27 -41 -33 -156 -101 -383 -313 -518 -485 -14 -18 -29
-37 -35 -44 -5 -6 -23 -31 -40 -56 -16 -25 -33 -47 -36 -50 -3 -3 -31 -48 -62
-100 -31 -52 -60 -99 -64 -105 -45 -57 -199 -447 -217 -545 -2 -14 -10 -47
-16 -75 -11 -47 -14 -61 -24 -117 -2 -13 -11 -61 -20 -108 -17 -87 -28 -196
-26 -240 1 -14 1 -32 1 -40 -24 -378 65 -802 246 -1180 56 -117 122 -232 136
-238 4 -2 7 -8 7 -13 0 -8 105 -157 120 -169 3 -3 37 -44 74 -92 38 -48 73
-85 79 -81 6 3 7 1 3 -5 -3 -5 19 -34 50 -64 31 -29 70 -67 88 -83 121 -117
274 -234 412 -317 97 -57 297 -158 314 -158 6 0 22 -7 35 -16 14 -9 25 -13 25
-10 0 4 13 0 30 -9 16 -8 32 -15 35 -15 5 -1 27 -7 65 -21 64 -23 328 -86 394
-94 23 -3 52 -7 66 -10 94 -19 533 -19 650 0 19 3 49 7 67 9 18 3 40 7 50 10
10 3 34 7 54 10 20 3 48 10 63 15 14 6 26 8 26 6 0 -2 12 0 28 6 15 6 36 13
47 15 43 8 161 47 173 57 6 5 12 7 12 4 0 -3 42 12 93 34 50 22 97 41 102 42
6 1 12 4 15 7 3 3 41 23 85 44 121 60 363 215 421 271 6 5 25 21 44 35 65 49
257 247 339 350 154 192 275 396 367 621 44 109 90 245 100 299 3 14 7 32 10
40 4 8 8 28 10 44 2 16 8 45 13 65 5 20 9 43 9 51 0 8 5 42 11 75 30 159 32
543 5 735 -2 19 -7 53 -9 75 -16 149 -111 460 -184 604 -12 22 -19 41 -17 41
15 0 -206 370 -226 378 -4 2 -8 10 -8 18 0 8 -4 14 -8 14 -4 0 -15 12 -24 28
-9 15 -25 37 -35 49 -10 11 -34 41 -53 65 -39 48 -213 224 -275 279 -22 19
-76 62 -120 94 -44 33 -84 63 -90 67 -51 41 -328 198 -350 198 -7 0 -16 4 -19
9 -16 24 -365 147 -475 166 -19 3 -39 9 -44 12 -5 3 -21 7 -36 8 -14 1 -51 7
-81 14 -30 6 -82 13 -115 16 -33 2 -62 5 -65 6 -6 3 -490 5 -493 3z"/>
</g>
</svg>
